<svg id="visual" viewBox="0 0 900 100" width="900" height="100" xmlns="http://www.w3.org/2000/svg" xmlns:xlink="http://www.w3.org/1999/xlink" version="1.1"><rect x="0" y="0" width="900" height="100" fill="#9254C8"></rect><path d="M0 49L15 55.2C30 61.3 60 73.7 90 74.3C120 75 150 64 180 58.2C210 52.3 240 51.7 270 56.7C300 61.7 330 72.3 360 74C390 75.7 420 68.3 450 65C480 61.7 510 62.3 540 65.7C570 69 600 75 630 73.7C660 72.3 690 63.7 720 62.3C750 61 780 67 810 66.2C840 65.3 870 57.7 885 53.8L900 50L900 0L885 0C870 0 840 0 810 0C780 0 750 0 720 0C690 0 660 0 630 0C600 0 570 0 540 0C510 0 480 0 450 0C420 0 390 0 360 0C330 0 300 0 270 0C240 0 210 0 180 0C150 0 120 0 90 0C60 0 30 0 15 0L0 0Z" fill="#9254c8"></path><path d="M0 68L15 64.2C30 60.3 60 52.7 90 53C120 53.3 150 61.7 180 62C210 62.3 240 54.7 270 52.5C300 50.3 330 53.7 360 57.5C390 61.3 420 65.7 450 66C480 66.3 510 62.7 540 60.8C570 59 600 59 630 57.8C660 56.7 690 54.3 720 56.2C750 58 780 64 810 67.3C840 70.7 870 71.3 885 71.7L900 72L900 0L885 0C870 0 840 0 810 0C780 0 750 0 720 0C690 0 660 0 630 0C600 0 570 0 540 0C510 0 480 0 450 0C420 0 390 0 360 0C330 0 300 0 270 0C240 0 210 0 180 0C150 0 120 0 90 0C60 0 30 0 15 0L0 0Z" fill="#854bc9"></path><path d="M0 52L15 49.3C30 46.7 60 41.3 90 38.8C120 36.3 150 36.7 180 38.3C210 40 240 43 270 43.7C300 44.3 330 42.7 360 40.8C390 39 420 37 450 39.7C480 42.3 510 49.7 540 51.8C570 54 600 51 630 48.7C660 46.3 690 44.7 720 42.7C750 40.7 780 38.3 810 41.2C840 44 870 52 885 56L900 60L900 0L885 0C870 0 840 0 810 0C780 0 750 0 720 0C690 0 660 0 630 0C600 0 570 0 540 0C510 0 480 0 450 0C420 0 390 0 360 0C330 0 300 0 270 0C240 0 210 0 180 0C150 0 120 0 90 0C60 0 30 0 15 0L0 0Z" fill="#7743ca"></path><path d="M0 22L15 24C30 26 60 30 90 31.5C120 33 150 32 180 30.3C210 28.7 240 26.3 270 26.3C300 26.3 330 28.7 360 29.7C390 30.7 420 30.3 450 31.2C480 32 510 34 540 32.7C570 31.3 600 26.7 630 24.3C660 22 690 22 720 22.8C750 23.7 780 25.3 810 29.7C840 34 870 41 885 44.5L900 48L900 0L885 0C870 0 840 0 810 0C780 0 750 0 720 0C690 0 660 0 630 0C600 0 570 0 540 0C510 0 480 0 450 0C420 0 390 0 360 0C330 0 300 0 270 0C240 0 210 0 180 0C150 0 120 0 90 0C60 0 30 0 15 0L0 0Z" fill="#663bcc"></path><path d="M0 16L15 17.3C30 18.7 60 21.3 90 23.8C120 26.3 150 28.7 180 29.3C210 30 240 29 270 26.5C300 24 330 20 360 17.5C390 15 420 14 450 16.3C480 18.7 510 24.3 540 27.2C570 30 600 30 630 29.2C660 28.3 690 26.7 720 26C750 25.3 780 25.7 810 26.5C840 27.3 870 28.7 885 29.3L900 30L900 0L885 0C870 0 840 0 810 0C780 0 750 0 720 0C690 0 660 0 630 0C600 0 570 0 540 0C510 0 480 0 450 0C420 0 390 0 360 0C330 0 300 0 270 0C240 0 210 0 180 0C150 0 120 0 90 0C60 0 30 0 15 0L0 0Z" fill="#5135ce"></path><path d="M0 19L15 17.5C30 16 60 13 90 11.8C120 10.7 150 11.3 180 11C210 10.7 240 9.3 270 10.7C300 12 330 16 360 16.7C390 17.3 420 14.7 450 15C480 15.3 510 18.7 540 18.2C570 17.7 600 13.3 630 13.2C660 13 690 17 720 18.3C750 19.7 780 18.3 810 16.2C840 14 870 11 885 9.5L900 8L900 0L885 0C870 0 840 0 810 0C780 0 750 0 720 0C690 0 660 0 630 0C600 0 570 0 540 0C510 0 480 0 450 0C420 0 390 0 360 0C330 0 300 0 270 0C240 0 210 0 180 0C150 0 120 0 90 0C60 0 30 0 15 0L0 0Z" fill="#332fd0"></path></svg>